<svg xmlns="http://www.w3.org/2000/svg" viewBox="0 0 199.9 24.87">
  <g data-name="Livello 2">
    <path d="M17.61 7.15c0 5.56-3.81 7-5 7.29a3.74 3.74 0 01.56 0c1.29 0 3.42.65 3.42 5v.7c-.21 4.26-7.3 4.82-12.14 4.82-1.42 0-2.61 0-3.42-.07a1.16 1.16 0 01-1-1.23C.09 19.44.35 7 .45 2.4A1.71 1.71 0 011.89.6h2c4.91 0 13.47.75 13.67 6.08.03.14.05.32.05.47zM7.47 12a5.37 5.37 0 001 .09c.77 0 1.72-.19 1.72-1V11C10 9.41 7.47 9.29 7.47 9.29zm2.71 6.64c0-1.35-2.39-1.35-2.39-1.35v3s2.28-.14 2.39-1.56zM37.43 1.75c.11 2.21.15 6.31.15 10.36s0 8.13-.06 10.32A1.74 1.74 0 0136 24.26h-3.37a1.67 1.67 0 01-1.42-1.77l-.06-2.14s-.92 4.12-6.2 4.12h-.22c-4.8-.14-5.51-12.34-5.51-19.47 0-1.26 0-2.37.06-3.21A1.69 1.69 0 0120.76 0h5.42c.8 0 1.38.79 1.38 1.82v2.53c0 3.26.22 7.2 1.51 7.2 1.7 0 2-4.87 2-8.27v-1.4A1.7 1.7 0 0132.47 0h3.34a1.8 1.8 0 011.62 1.75zM48.14.42c3.42 0 8.29 1.28 9.38 6.05a2.2 2.2 0 01.06.49 1.83 1.83 0 01-1 1.72l-4.28 1.89a.88.88 0 01-.34.07.82.82 0 01-.65-.3 1.26 1.26 0 00-.8-.44.73.73 0 00-.58.35.48.48 0 00-.09.3c0 1.37 6.61 2.19 6.72 6.66v.16c0 5.19-5.4 7-9.43 7.08h-.28A7.55 7.55 0 0140 20.72a2 2 0 01-.28-1 1.67 1.67 0 011.44-1.82h.07l3.9.21a1.42 1.42 0 011.1.77.92.92 0 00.84.44 1.3 1.3 0 001-1.21 1.11 1.11 0 00-.71-1c-1.44-.77-7.88-3.33-8.16-7.61v-.77c0-5.63 4.5-8 8.09-8.27.25-.04.55-.04.85-.04zM60.89.4C65.2.58 77.62 2 77.62 13.06c0 10-10.37 11.22-15.45 11.22h-1.33a1.69 1.69 0 01-1.42-1.82c0-3.24-.08-10.41-.08-15.69V2.18A1.66 1.66 0 0160.85.4zM66.58 16s2.82-1.7 2.82-3.19v-.16c-.21-1.56-2.6-1.82-2.6-1.82zm29.69 2.63a2.15 2.15 0 01.26 1 1.78 1.78 0 01-.69 1.47c-1.12.84-2.76 2-3.9 2.75a1.27 1.27 0 01-.69.21 1.45 1.45 0 01-1.29-1l-2.73-6.26s.06 3.66.07 6a1.69 1.69 0 01-1.53 1.82h-5.68a1 1 0 01-.86-1V2.28A1.66 1.66 0 0180.75.49h4.67a1.66 1.66 0 011.48 1.79V4.7a10.66 10.66 0 00.06 1.63c.07 0 1.83-2.93 3-4.73a1.51 1.51 0 011.23-.6 1.36 1.36 0 01.92.33C93 2 94.12 3 95 3.75a2 2 0 01.73 1.49 2 2 0 01-.37 1.17c-1.27 1.89-3.25 4.66-3.25 4.75s2.74 4.95 4.16 7.47zm11.9-4.01c.8 0 1.14.56 1.14 1.37 0 1.75.09 4.82.11 6.78 0 1.07-.6 1.82-1.42 1.82h-8.22a1.67 1.67 0 01-1.48-1.82v-7a1.08 1.08 0 01.93-1.19h.56v-4.27h-.63c-.45 0-.6-.33-.6-.93v-7.1a1.85 1.85 0 011.56-1.86c1.16 0 2.84-.09 4.43-.09 1.25 0 2.46 0 3.34.07a1.81 1.81 0 011.44 1.93c0 2 0 5.12-.08 6.8a1.08 1.08 0 01-1.1 1.19h-.28v4.31zm20.08-6.14a1.63 1.63 0 01-1.38 1.72c-1.23 0-2.86-.12-2.86-.12s0 8.59.06 12.41c0 1-.56 1.84-1.44 1.84H122c-1.42 0-3.25 0-4.5-.07a1.69 1.69 0 01-1.5-1.74l-.09-12.43h-3.44a1.66 1.66 0 01-1.46-1.82v-.1c.08-1.86.19-4.63.26-6.4a1.65 1.65 0 011.5-1.77h13.8A1.68 1.68 0 01128 1.77c.1 1.89.21 4.87.25 6.71zm18.85 0a1.63 1.63 0 01-1.38 1.72c-1.23 0-2.86-.12-2.86-.12s0 8.59.06 12.41c0 1-.56 1.84-1.44 1.84h-.65c-1.42 0-3.25 0-4.5-.07a1.69 1.69 0 01-1.44-1.84l-.09-12.43h-3.44a1.66 1.66 0 01-1.46-1.82c.08-1.86.19-4.63.26-6.4A1.65 1.65 0 01131.62 0h13.8a1.68 1.68 0 011.46 1.75c.12 1.91.19 4.89.22 6.73zm11.48 6.14c.8 0 1.14.56 1.14 1.37 0 1.75.09 4.82.11 6.78 0 1.07-.6 1.82-1.42 1.82h-8.22a1.67 1.67 0 01-1.48-1.82v-7a1.08 1.08 0 01.93-1.19h.56v-4.27h-.63c-.45 0-.6-.33-.6-.93v-7.1a1.84 1.84 0 011.56-1.86c1.16 0 2.84-.09 4.43-.09 1.25 0 2.46 0 3.34.07a1.81 1.81 0 011.44 1.93c0 2 0 5.12-.08 6.8a1.08 1.08 0 01-1.1 1.19h-.28v4.31zM178 10.41h-8.35l.06 1.35h3.49a1.67 1.67 0 011.49 1.82v1.35a1.71 1.71 0 01-1.48 1.84l-3.47-.12v1.49H178a1.62 1.62 0 011.42 1.79v2.7a1.65 1.65 0 01-1.42 1.82h-15.1a1.68 1.68 0 01-1.48-1.84c0-5.4.09-20 .19-20.63s.3-1.54 1.14-1.54C164.31.44 174 .33 178 .3a1.67 1.67 0 011.46 1.82c0 1.82.06 4.59.08 6.43a1.7 1.7 0 01-1.54 1.86zM190.47.42c3.42 0 8.29 1.28 9.38 6.05a2.14 2.14 0 01.06.49 1.83 1.83 0 01-1 1.72l-4.28 1.89a.88.88 0 01-.34.07.82.82 0 01-.65-.3 1.25 1.25 0 00-.8-.44.73.73 0 00-.58.35.48.48 0 00-.09.3c0 1.37 6.61 2.19 6.72 6.66v.16c0 5.19-5.4 7-9.43 7.08h-.28a7.55 7.55 0 01-6.89-3.73 2 2 0 01-.28-1 1.67 1.67 0 011.44-1.82h.07l3.9.21a1.42 1.42 0 011.1.77.92.92 0 00.84.44 1.3 1.3 0 001-1.21 1.11 1.11 0 00-.71-1c-1.44-.77-7.88-3.33-8.16-7.61v-.77c0-5.63 4.5-8 8.09-8.27.29-.04.59-.04.89-.04z" data-name="Livello 1" fill="#f5b732"/>
  </g>
</svg>
