<svg xmlns="http://www.w3.org/2000/svg" fill="none" viewBox="0 0 30 30">
  <path d="M10.667 12H1.333A1.334 1.334 0 010 10.667V1.333A1.333 1.333 0 011.333 0h9.334A1.333 1.333 0 0112 1.333v9.334A1.334 1.334 0 0110.667 12zm0 17.333H1.333A1.333 1.333 0 010 28v-9.333a1.333 1.333 0 011.333-1.334h9.334A1.333 1.333 0 0112 18.667V28a1.333 1.333 0 01-1.333 1.333z" fill="#8C30F5"/>
  <path d="M16 1.333h13.333V4H16V1.333zm13.333 17.334H16v2.666h13.333v-2.666z" fill="#2EC5CE"/>
  <path d="M29.333 25.333H16V28h13.333v-2.667zm0-17.333H16v2.667h13.333V8z" fill="#D6B1FF"/>
</svg>
