<svg xmlns="http://www.w3.org/2000/svg" fill="none" viewBox="0 0 48 48">
  <path d="M24 48c13.255 0 24-10.745 24-24S37.255 0 24 0 0 10.745 0 24s10.745 24 24 24z" fill="#FF4500"/>
  <path d="M40 24a3.51 3.51 0 00-3.509-3.509c-.954 0-1.796.365-2.414.983-2.386-1.713-5.698-2.835-9.347-2.976l1.6-7.495 5.193 1.095a2.501 2.501 0 002.498 2.386 2.504 2.504 0 002.498-2.498 2.504 2.504 0 00-2.498-2.498c-.982 0-1.825.561-2.218 1.403l-5.81-1.235a.7.7 0 00-.477.084c-.14.085-.225.225-.28.393l-1.77 8.365c-3.733.112-7.073 1.207-9.487 2.976a3.541 3.541 0 00-2.414-.983A3.51 3.51 0 008.056 24c0 1.432.842 2.639 2.077 3.2a6.574 6.574 0 00-.084 1.067c0 5.39 6.26 9.74 14.007 9.74s14.007-4.35 14.007-9.74c0-.365-.028-.702-.084-1.039C39.129 26.667 40 25.432 40 24zm-24 2.498A2.504 2.504 0 0118.498 24a2.504 2.504 0 012.498 2.498 2.504 2.504 0 01-2.498 2.498A2.504 2.504 0 0116 26.498zm13.95 6.597c-1.711 1.712-4.968 1.824-5.922 1.824-.954 0-4.238-.14-5.923-1.824a.66.66 0 010-.927.661.661 0 01.927 0c1.066 1.067 3.368 1.46 5.024 1.46 1.656 0 3.93-.393 5.025-1.46a.66.66 0 01.926 0c.196.281.196.674-.056.927zm-.448-4.098a2.504 2.504 0 01-2.498-2.499A2.504 2.504 0 0129.502 24 2.504 2.504 0 0132 26.498a2.504 2.504 0 01-2.498 2.498z" fill="#fff"/>
</svg>
