<svg xmlns="http://www.w3.org/2000/svg" viewBox="0 0 1599.34 1385.59">
  <g data-name="Livello 2">
    <g data-name="Layer 1">
      <path d="M1459.34 1126.33c-38.39 41.61-89.07 77.76-153.26 106.78-225 89.36-494.58 107.68-763.59 49.4a1524.9 1524.9 0 01-175.24-49.08h-.32q-39.74-13.69-79.06-29.72-11.35-4.76-22.16-9.94c-54.72-26.07-99.06-58.77-133.2-96.8C29.22 982.23 18.16 819.6 91.31 647.75-4.3 300.27-.17 84.46 129.16 34.35 219.51-.76 370.83 44.89 591.89 182.7q209.81-58.35 417.76.73c281-171.8 449-196.8 521.71-98.33v.06c67 90.62 53.43 285.78-26.76 567.41 73.71 177.51 68.94 349.89-45.26 473.76z" fill="#f0b90b" stroke="#f0b90b"/>
      <path d="M379.71 1240.88q-6.84-2.29-13.65-4.65c-26.69-9.16-53.36-19.19-79.56-29.87-7.64-3.2-15.15-6.57-22.35-10-54.06-25.75-99.22-58.58-134.23-97.56C27.55 985.13 12.61 824.91 87.83 647.56c-100.36-365.14-87.27-566.64 40-616C220.65-4.47 377 45.27 592.45 179.4c139.32-38.46 279.49-38.21 416.66.73C1202 62.36 1347.54 11.08 1441.62 27.73c39.19 6.92 70.31 25.68 92.5 55.71l.81 1.19c65.07 89.66 56.27 275.42-26.87 567.77 78.45 189.5 62.07 358.45-46.16 475.84-39.67 43-91.6 79.19-154.33 107.55-226.51 90-498.45 107.56-765.86 49.63a1534.49 1534.49 0 01-162-44.54zM321.11 50.19C241 23.35 177.25 18.93 130.47 37.1 8.3 84.45-3.79 289.66 94.54 647l.25.92-.38.88c-74.75 175.64-60.3 334.09 40.68 446.2 34.43 38.35 78.9 70.66 132.17 96 7.11 3.41 14.51 6.73 22 9.87 26.05 10.62 52.59 20.6 78.84 29.65a1537.87 1537.87 0 00175.15 49c266 57.63 536.43 40.14 761.48-49.22 61.75-27.93 113-63.6 152-106 106.8-115.84 122.67-283 44.68-470.78l-.37-.89.27-.91c82.09-288.31 91.24-478.4 27.21-565l-.82-1.18c-21.11-28-50.5-45.5-87.4-52-92.5-16.37-236.78 34.87-428.83 152.3l-1.33.82-1.54-.44c-136.86-39.15-276.74-39.39-415.77-.73l-1.54.43-1.33-.83Q434.33 88.13 321.11 50.19z" fill="#650000"/>
      <path d="M399.4 228.75C282.42 324 213.33 433 162.6 547.31 61.9 85.87 171.71 23 399.4 228.75zm800 14.88c117.18 94.94 186.5 203.77 237.48 317.92 99.71-461.71-10.24-524.29-237.48-317.92z" fill="#000072"/>
      <path d="M372.54 1259.81q-47.85-16-95.12-35.27C39.48 1124-41.49 902.94 64.7 646.3-29.74 299.76-20.86 97.09 91.79 26.84c97.82-61 262.91-18.25 504.47 130.73 136.76-36 274.32-35.72 409.22.71 242.2-146.46 407.24-187.59 504.25-126 111.92 71.1 118.93 273.63 21.41 619.06 50.32 124.37 61.21 242.85 31.46 343.06-33.77 113.74-116.24 201-245.14 259.22-.38.17-.76.33-1.15.48-282.84 112.37-621.82 113.57-943.77 5.71zM313.48 69.05c-85.85-28.76-151-30.52-192.78-4.46C57 104.31 4.48 236.77 116 642.21a20.84 20.84 0 01-1 13.79c-101.47 238.44-32.83 435.4 183.66 526.84 335.73 136.71 699 147.49 996.58 29.5 221.78-100.55 289.39-301.61 185.48-551.7a20.86 20.86 0 01-.81-13.77c115.09-404.12 63.82-536.87.54-577.07-76.81-48.8-234.76-3-456.58 132.62a27.77 27.77 0 01-21.95 2.88c-132.52-37.91-268-38.13-402.54-.68a27.76 27.76 0 01-22-3C475.44 138 386.89 93.65 313.48 69.05zm992.59 1164.06h.06z" fill="#000072"/>
      <path d="M1270.92 708.9c-.42 88.9-60.54 160.74-134.28 160.46s-133.19-72.58-132.78-161.48 60.54-160.74 134.28-160.46 133.2 72.58 132.78 161.48zm-936.73-3.69c-.42 88.9 59 161.2 132.78 161.48s133.87-71.56 134.28-160.46-59-161.2-132.78-161.48-133.87 71.56-134.28 160.46z" fill="#000072"/>
      <path d="M1060.75 1225.71c-.46 95.85 102.64 138.53 230.09 139.14 31.36.15 61.25-2.25 88.49-7.44 83.62-15.75 142.57-57.18 142.92-129.48.46-95.85-102.47-174.09-229.92-174.7-41.77-.2-81 8-114.89 22.47-69.44 29.6-116.38 85.58-116.69 150.01z" fill="#f0b90b" stroke="#f0b90b"/>
      <path d="M1155.06 1347.12c-63-23.38-97.91-65.32-97.64-121.42.31-63.32 45.79-122 118.71-153.07 35.15-15.07 75.34-22.93 116.21-22.73 129.05.62 233.7 80.49 233.23 178-.32 68-52 115.11-145.63 132.74-26.92 5.13-56.9 7.66-89.13 7.5-53.65-.21-99.38-7.52-135.75-21.02zm-91-121.39c-.4 84.35 84.38 135.11 226.78 135.8 31.79.15 61.35-2.33 87.85-7.38 90.11-17 139.91-61.8 140.21-126.23.45-93.89-101.21-170.77-226.6-171.36-40-.19-79.24 7.48-113.57 22.2-70.44 30-114.38 86.36-114.67 147z" fill="#650000"/>
      <path d="M1148.77 1363.12a235.83 235.83 0 01-30.88-13.95c-51.2-27.94-78.12-70.68-77.87-123.58s27.43-102.36 76.51-138.91c47.32-35.23 109.78-54.46 175.88-54.15 138.65.66 251 88.35 250.53 195.47-.26 52.9-27.59 95.37-79.05 122.82-43.23 23.06-103.12 35.07-173.17 34.74-54.58-.26-102.92-7.95-141.95-22.44zm237.39-272.52a274.41 274.41 0 00-93.95-16.64c-57.17-.27-110.78 16-150.94 46-38.4 28.59-59.65 66.19-59.83 105.89-.18 37.25 18.76 66.54 56.29 87 37 20.23 90 31 153.19 31.34s116.28-10 153.48-29.87c37.73-20.12 56.95-49.22 57.12-86.48.28-59.73-46.75-111.77-115.36-137.25z" fill="#000072"/>
      <path d="M1262.25 1379.38a106.49 106.49 0 01-43.86-30.94c-21.65-25.42-33-60.83-32.79-102.42a20.71 20.71 0 0141.42.2c-.15 31.53 7.77 57.59 22.9 75.36 12.34 14.5 28.83 22.52 46.4 22.6 33.6.16 69.91-30.22 70.23-97.29a20.71 20.71 0 0141.42.2c-.44 91.28-56.6 138.77-111.85 138.51a98.55 98.55 0 01-33.87-6.22z" fill="#000072"/>
      <path d="M84.8 1221c-.46 95.85 102.64 138.53 230.09 139.14 31.36.15 61.25-2.25 88.49-7.44C487 1337 546 1295.55 546.3 1223.25c.46-95.85-102.47-174.09-229.92-174.7-41.77-.2-81 8-114.89 22.47C132.06 1100.61 85.11 1156.6 84.8 1221z" fill="#f0b90b" stroke="#f0b90b"/>
      <path d="M179 1342.19a219.1 219.1 0 01-28.69-12.95c-45.24-24.69-69-62.11-68.82-108.22.31-63.32 45.8-122 118.71-153.07 35.16-15.07 75.35-22.93 116.21-22.73 129.07.63 233.7 80.49 233.23 178-.33 68-52 115.11-145.63 132.74-26.9 5.13-56.89 7.66-89.13 7.5-52.58-.21-98.88-7.52-135.88-21.27zM88.13 1221c-.21 44.14 21.77 78.57 65.35 102.35 39.51 21.57 95.34 33.13 161.43 33.45 31.81.15 61.36-2.33 87.85-7.38 90.11-17 139.91-61.81 140.21-126.23.45-93.89-101.21-170.77-226.61-171.36-40-.19-79.24 7.48-113.57 22.2-70.44 30-114.38 86.36-114.67 147z" fill="#650000"/>
      <path d="M172.82 1358.43a235.86 235.86 0 01-30.88-13.95c-51.19-27.94-78.12-70.67-77.87-123.58s27.43-102.34 76.52-138.9c47.32-35.23 109.78-54.47 175.88-54.15s128.37 20.14 175.35 55.83c48.73 37 75.44 86.61 75.18 139.64s-27.59 95.37-79 122.82c-43.23 23.06-103.12 35.07-173.17 34.74-54.64-.26-102.98-7.96-142.01-22.45zm237.05-272.65c-28.68-10.65-60.51-16.35-93.61-16.51-57.17-.27-110.78 16-150.94 46-38.39 28.59-59.64 66.2-59.83 105.89-.18 37.26 18.76 66.54 56.3 87 37 20.2 90 31 153.18 31.34s116.28-10 153.48-29.87c37.73-20.12 56.95-49.22 57.12-86.48.19-39.69-20.69-77.5-58.81-106.46a221.15 221.15 0 00-56.89-30.91z" fill="#140077"/>
      <path d="M286.26 1374.75a102.27 102.27 0 01-16-7.59c-38.79-22.64-60.88-68.51-60.6-125.84a20.71 20.71 0 0141.42.2c-.2 42.13 14.4 74.88 40.07 89.87a58 58 0 0058.54.28c25.81-14.73 40.72-47.35 40.93-89.48a20.71 20.71 0 0141.42.2c-.28 57.32-22.81 103-61.81 125.24a98.78 98.78 0 01-83.97 7.12zM1291.75 559c10.61-12.86-83.38-152.68-221.79-120.69-50.7 11.72-41.05 44.95-11.18 55.16 28.44 9.72 71.94 8.53 108.36 19.28 71.01 20.91 114 59.07 124.61 46.25zm-993.3 6.71C286.87 553.14 370.12 411 510.83 439.3c51.55 10.37 44.43 43.82 15.37 54.81-27.67 10.46-71.21 10.42-106.78 22.11C350.07 539 310 578.28 298.45 565.71zm665.07 419.88c-1.19 1.2-40.23 39.87-55.16 102.17-15.19 63.25-103.43 62.7-103.43 62.7s-88.25.56-103.43-62.7c-14.92-62.3-54-101-55.16-102.17 2.79.56 112.4 22.61 158.07-44.9h1c45.71 67.51 155.32 45.46 158.11 44.9z" fill="#000072"/>
      <path d="M908.36 1077.73c-15.19 78.19-103.43 77.5-103.43 77.5s-88.25.69-103.43-77.5c0 0 13.85-47.22 103.43-47.22s103.43 47.22 103.43 47.22z" fill="#ff0080"/>
      <path d="M804.93 1060.1c62.15 0 87.83 22.71 97.74 36.63a98.17 98.17 0 005.69-19s-13.85-47.22-103.43-47.22-103.43 47.22-103.43 47.22a98.18 98.18 0 005.69 19c9.91-13.92 35.59-36.63 97.74-36.63z" fill="#000072" opacity=".3"/>
      <path d="M804.86 1158.43h-.07c-2.15 0-97.84-.67-114.29-69.34-14.48-60.45-52.81-98.43-53.19-98.8a6.22 6.22 0 01-.13-9.3c2.75-2.8 7.69-4 12.28-3.07 4.18.87 103.37 20.67 144.87-40.7 1.86-2.76 5.77-4.51 10.05-4.51h1.06c4.28 0 8.19 1.75 10.05 4.51C857 998.59 956.2 978.79 960.4 977.91c4.6-1 9.54.29 12.28 3.09a6.22 6.22 0 01-.15 9.3c-.38.37-38.71 38.34-53.18 98.8-16.44 68.65-112.13 69.33-114.49 69.33zm0-16h.07c4.24 0 79.17-.79 92.41-56.07 9.92-41.41 30-72.53 43.58-89.91-35.24 2.66-98.34.66-136-40.28-37.65 40.94-100.75 42.94-136 40.28 13.55 17.38 33.67 48.51 43.59 89.91 13.24 55.27 88.16 56.07 92.27 56.07z" fill="#000072"/>
      <path d="M820.31 897.88c-.6 2.57-1 4.11-1.62 6s-1.13 3.63-1.75 5.4c-1.22 3.55-2.58 7-4.09 10.4a150.45 150.45 0 01-10.51 19.64A136.28 136.28 0 01772.41 973c-23.67 19.37-54.56 28.83-83.69 29.16-3.65-.06-7.32.14-10.93-.16l-10.8-.83c-7.17-.26-14.4-1.94-21.53-3.28-14.18-3.5-28.36-8.31-40.91-16.48-25.51-15.13-43.63-43.61-41.59-72a.61.61 0 011.14-.26v.07a176.53 176.53 0 0010.9 16.56c2 2.54 3.89 5.06 6 7.39 1 1.18 2.06 2.36 3 3.54l3.28 3.29a117.37 117.37 0 0028.75 21.44c21.18 11.11 46.71 13.13 71.18 11.83a127.66 127.66 0 0034.83-7.62c2.79-.92 5.36-2.29 8-3.41 2.55-1.38 5.2-2.58 7.63-4.14a94.12 94.12 0 0014.33-9.87A115.67 115.67 0 00775 922a135.12 135.12 0 008.64-15.47c1.23-2.68 2.47-5.37 3.54-8.09.54-1.35 1.06-2.71 1.52-4s1-2.9 1.17-3.56l.31-1a15.62 15.62 0 0130.17 8z" fill="#000072"/>
      <path d="M820.32 890.91c.2.66.71 2.33 1.15 3.56s1 2.7 1.51 4.05c1.06 2.72 2.29 5.41 3.51 8.1a134.92 134.92 0 008.6 15.5A115.62 115.62 0 00858 948.39a94 94 0 0014.15 9.93c2.43 1.57 5.07 2.77 7.62 4.16 2.68 1.12 5.25 2.5 8 3.43a127.67 127.67 0 0034.81 7.72c24.47 1.37 50-.57 71.22-11.61a117.37 117.37 0 0028.82-21.36l3.29-3.28c1-1.19 2-2.36 3-3.54 2.14-2.32 4-4.84 6.05-7.38a176.49 176.49 0 0011.04-16.58v-.07a.61.61 0 011.14.26c1.94 28.43-16.26 56.87-41.82 71.91-12.57 8.13-26.77 12.89-41 16.35-7.14 1.31-14.37 3-21.54 3.21l-10.8.8c-3.6.28-7.28.08-10.93.13-29.13-.42-60-10-83.6-29.42a136.24 136.24 0 01-29.82-33.68 150.39 150.39 0 01-10.45-19.67c-1.5-3.4-2.86-6.86-4.06-10.41-.61-1.77-1.19-3.56-1.73-5.41s-1-3.47-1.6-6a15.62 15.62 0 0130.18-8z" fill="#000072"/>
      <path d="M802.27 888c55.13 1.45 94.23-50.29 76.05-65.67-7.27-6.15-20.43-10.49-33.61-13.48a204.45 204.45 0 00-79.47-2.1c-13.36 2.29-26.79 5.92-34.46 11.68-19.17 14.42 16.36 68.13 71.49 69.57z" fill="#000072"/>
      <g data-name="Layer 2">
        <path d="M467.72 606.49l24.51 25.1-61.73 61.73-24.5-24.51zm37.21 37.21l24.51 25.1-98.94 98.95-24.5-24.52zm-111.64 37.21L417.8 706l-24.51 24.51L368.78 706zm148.85 0L566.66 706l-98.94 99-24.52-24.55z" data-name="Layer 1-2" fill="#f0b90b" stroke="#f0b90b"/>
      </g>
      <g data-name="Layer 2">
        <path d="M1137.39 609.15l24.51 25.1-61.72 61.75-24.51-24.51zm37.22 37.22l24.51 25.1-98.94 98.94-24.51-24.51zM1063 683.58l24.51 25.1L1063 733.2l-24.51-24.51zm148.82 0l24.51 25.1-98.94 98.94-24.51-24.51z" data-name="Layer 1-2" fill="#f0b90b" stroke="#f0b90b"/>
      </g>
    </g>
  </g>
</svg>
