<svg xmlns="http://www.w3.org/2000/svg" fill="none" viewBox="0 0 27 32">
  <path d="M25.333 32h-12A1.334 1.334 0 0112 30.667V28a1.333 1.333 0 011.333-1.333h12A1.333 1.333 0 0126.667 28v2.667A1.333 1.333 0 0125.333 32z" fill="#D6B1FF"/>
  <path d="M25.333 0h-24A1.333 1.333 0 000 1.333V4a1.333 1.333 0 001.333 1.333h24A1.333 1.333 0 0026.667 4V1.333A1.333 1.333 0 0025.333 0z" fill="#2EC5CE"/>
  <path d="M25.333 8h-24A1.333 1.333 0 000 9.333v13.334A1.333 1.333 0 001.333 24h24a1.333 1.333 0 001.334-1.333V9.333A1.333 1.333 0 0025.333 8z" fill="#8C30F5"/>
</svg>
